<svg xmlns="http://www.w3.org/2000/svg" viewBox="0 0 64 64" width="64" height="64">
  <rect width="64" height="64" rx="16" fill="#f1f5f9" />

  <path d="M22,12 C22,8 24,6 26,6 L27,6 C29,6 31,8 31,12 L31,30 L33,30 L33,12 C33,8 35,6 37,6 L38,6 C40,6 42,8 42,12 L42,32 C42,38.6 37.5,44 34,46 L34,58 C34,60.2 32.2,62 30,62 C27.8,62 26,60.2 26,58 L26,46 C22.5,44 18,38.6 18,32 L18,12 C18,8 20,6 22,6 L23,6 C25,6 27,8 27,12 L27,30 L29,30 L29,12 C29,8 31,6 33,6 C31,6 29,8 29,12 L29,30 L27,30 L27,12 C27,8 25,6 23,6 C21,6 20,8 20,12 L20,32 C20,37 23,41 26,43 L26,12 Z"
        fill="#64748b"/>

  <path d="M48,16 C48,16 54,34 40,48 C26,62 12,52 12,52 C12,52 6,34 20,20 C34,6 48,16 48,16 Z"
        fill="#22c55e" stroke="#ffffff" stroke-width="2"/>

  <path d="M20,20 C26,26 34,34 40,48" stroke="#16a34a" stroke-width="2" fill="none" opacity="0.5"/>
</svg>